# Blender v2.78 (sub 0) OBJ File: ''
# www.blender.org
mtllib piece.mtl
o Cone
v -0.999485 -4.364421 -0.684891
v -0.995076 0.196449 -1.174039
v -0.753419 0.196449 -1.109287
v -0.576513 0.196449 -0.932381
v -0.511761 0.196449 -0.690724
v -0.576513 0.196449 -0.449067
v -0.753419 0.196449 -0.272161
v -0.999989 0.433973 -0.684225
v -0.995076 0.196449 -0.207410
v -1.236733 0.196449 -0.272161
v -1.413639 0.196449 -0.449067
v -1.478390 0.196449 -0.690724
v -1.413639 0.196449 -0.932381
v -1.236734 0.196449 -1.109287
v -0.930737 0.307827 -0.775840
v -0.997267 -0.015877 -1.401595
v -0.640383 -0.015877 -1.305968
v -0.379125 -0.015877 -1.044710
v -0.283498 -0.015877 -0.687825
v -0.379125 -0.015877 -0.330940
v -0.640383 -0.015877 -0.069683
v -0.997267 -0.015877 0.025944
v -1.354152 -0.015877 -0.069682
v -1.615410 -0.015877 -0.330940
v -1.711037 -0.015877 -0.687825
v -1.615410 -0.015877 -1.044709
v -1.354153 -0.015877 -1.305967
v -0.902250 0.148609 -0.813526
v -0.997939 -0.317317 -1.471384
v -0.605716 -0.317317 -1.366287
v -0.318588 -0.317317 -1.079160
v -0.213492 -0.317317 -0.686936
v -0.318588 -0.317317 -0.294712
v -0.605716 -0.317317 -0.007585
v -0.997939 -0.317317 0.097511
v -1.390163 -0.317317 -0.007585
v -1.677291 -0.317317 -0.294712
v -1.782387 -0.317317 -0.686936
v -1.677291 -0.317317 -1.079159
v -1.390164 -0.317317 -1.366287
v -0.893513 -0.136544 -0.825083
v -0.996889 -0.595412 -1.362265
v -0.659919 -0.595412 -1.271975
v -0.413240 -0.595412 -1.025296
v -0.322949 -0.595412 -0.688326
v -0.413240 -0.595412 -0.351357
v -0.659919 -0.595412 -0.104678
v -0.996888 -0.595412 -0.014387
v -1.333858 -0.595412 -0.104678
v -1.580537 -0.595412 -0.351356
v -1.670828 -0.595412 -0.688326
v -1.580537 -0.595412 -1.025295
v -1.333858 -0.595412 -1.271974
v -0.907173 -0.440105 -0.807012
v -0.993922 -0.884693 -1.054250
v -0.812923 -0.884693 -1.005751
v -0.680421 -0.884693 -0.873250
v -0.631923 -0.884693 -0.692250
v -0.680421 -0.884693 -0.511250
v -0.812923 -0.884693 -0.378749
v -0.993922 -0.884693 -0.330250
v -1.174922 -0.884693 -0.378749
v -1.307423 -0.884693 -0.511250
v -1.355922 -0.884693 -0.692250
v -1.307424 -0.884693 -0.873250
v -1.174923 -0.884693 -1.005751
v -0.945733 -0.801271 -0.756001
v -0.994883 -1.131963 -1.154006
v -0.763370 -1.131963 -1.091972
v -0.593890 -1.131963 -0.922492
v -0.531857 -1.131963 -0.690979
v -0.593890 -1.131963 -0.459466
v -0.763370 -1.131963 -0.289987
v -0.994883 -1.131963 -0.227953
v -1.226396 -1.131963 -0.289986
v -1.395876 -1.131963 -0.459466
v -1.457910 -1.131963 -0.690979
v -1.395876 -1.131963 -0.922492
v -1.226397 -1.131963 -1.091972
v -0.933245 -1.025260 -0.772522
v -0.996636 -1.462973 -1.335993
v -0.672969 -1.462973 -1.249267
v -0.436029 -1.462973 -1.012327
v -0.349303 -1.462973 -0.688661
v -0.436029 -1.462973 -0.364995
v -0.672969 -1.462973 -0.128055
v -0.996635 -1.462973 -0.041329
v -1.320302 -1.462973 -0.128054
v -1.557242 -1.462973 -0.364994
v -1.643968 -1.462973 -0.688661
v -1.557242 -1.462973 -1.012327
v -1.320302 -1.462973 -1.249267
v -0.910462 -1.313797 -0.802661
v -0.998078 -4.219829 -1.485792
v -0.598558 -4.219829 -1.378741
v -0.306090 -4.219829 -1.086272
v -0.199039 -4.219829 -0.686752
v -0.306090 -4.219829 -0.287233
v -0.598558 -4.219829 0.005236
v -0.998078 -4.219829 0.112287
v -1.397598 -4.219829 0.005236
v -1.690066 -4.219829 -0.287233
v -1.797117 -4.219829 -0.686752
v -1.690067 -4.219829 -1.086272
v -1.397598 -4.219829 -1.378741
v -0.891709 -4.035692 -0.827470
v -0.999485 -4.364421 -1.631938
v -0.525962 -4.364421 -1.505058
v -0.179319 -4.364421 -1.158414
v -0.052438 -4.364421 -0.684891
v -0.179319 -4.364421 -0.211367
v -0.525962 -4.364421 0.135276
v -0.999485 -4.364421 0.262156
v -1.473009 -4.364421 0.135276
v -1.819652 -4.364421 -0.211367
v -1.946532 -4.364421 -0.684890
v -1.819653 -4.364421 -1.158414
v -1.473009 -4.364421 -1.505057
v -0.873414 -4.146177 -0.851673
vt 0.0000 0.0000
vt 0.0000 0.0000
vt 0.0000 0.0000
vt 0.0000 0.0000
vt 0.0000 0.0000
vt 0.0000 0.0000
vt 0.0000 0.0000
vt 0.0000 0.0000
vt 0.0000 0.0000
vt 0.0000 0.0000
vt 0.0000 0.0000
vt 0.0000 0.0000
vt 0.0000 0.0000
vt 0.0000 0.0000
vt 0.0000 0.0000
vt 0.0000 0.0000
vt 0.0000 0.0000
vt 0.0000 0.0000
vt 0.0000 0.0000
vt 0.0000 0.0000
vt 0.0000 0.0000
vt 0.0000 0.0000
vt 0.0000 0.0000
vt 0.0000 0.0000
vt 0.0000 0.0000
vt 0.0000 0.0000
vt 0.0000 0.0000
vt 0.0000 0.0000
vt 0.0000 0.0000
vt 0.0000 0.0000
vt 0.0000 0.0000
vt 0.0000 0.0000
vt 0.0000 0.0000
vt 0.0000 0.0000
vt 0.0000 0.0000
vt 0.0000 0.0000
vt 0.0000 0.0000
vt 0.0000 0.0000
vt 0.0000 0.0000
vt 0.0000 0.0000
vt 0.0000 0.0000
vt 0.0000 0.0000
vt 0.0000 0.0000
vt 0.0000 0.0000
vt 0.0000 0.0000
vt 0.0000 0.0000
vt 0.0000 0.0000
vt 0.0000 0.0000
vt 0.0000 0.0000
vt 0.0000 0.0000
vt 0.0000 0.0000
vt 0.0000 0.0000
vt 0.0000 0.0000
vt 0.0000 0.0000
vt 0.0000 0.0000
vt 0.0000 0.0000
vt 0.0000 0.0000
vt 0.0000 0.0000
vt 0.0000 0.0000
vt 0.0000 0.0000
vt 0.0000 0.0000
vt 0.0000 0.0000
vt 0.0000 0.0000
vt 0.0000 0.0000
vt 0.0000 0.0000
vt 0.0000 0.0000
vt 0.0000 0.0000
vt 0.0000 0.0000
vt 0.0000 0.0000
vt 0.0000 0.0000
vt 0.0000 0.0000
vt 0.0000 0.0000
vt 0.0000 0.0000
vt 0.0000 0.0000
vt 0.0000 0.0000
vt 0.0000 0.0000
vt 0.0000 0.0000
vt 0.0000 0.0000
vt 0.0000 0.0000
vt 0.0000 0.0000
vt 0.0000 0.0000
vt 0.0000 0.0000
vt 0.0000 0.0000
vt 0.0000 0.0000
vt 0.0000 0.0000
vt 0.0000 0.0000
vt 0.0000 0.0000
vt 0.0000 0.0000
vt 0.0000 0.0000
vt 0.0000 0.0000
vt 0.0000 0.0000
vt 0.0000 0.0000
vt 0.0000 0.0000
vt 0.0000 0.0000
vt 0.0000 0.0000
vt 0.0000 0.0000
vt 0.0000 0.0000
vt 0.0000 0.0000
vt 0.0000 0.0000
vt 0.0000 0.0000
vt 0.0000 0.0000
vt 0.0000 0.0000
vt 0.0000 0.0000
vt 0.0000 0.0000
vt 0.0000 0.0000
vt 0.0000 0.0000
vt 0.0000 0.0000
vt 0.0000 0.0000
vt 0.0000 0.0000
vt 0.5000 0.5000
vt 0.3661 0.0001
vt 0.6339 0.0001
vt 0.8660 0.1340
vt 0.9999 0.3661
vt 0.9999 0.6339
vt 0.8660 0.8660
vt 0.6339 0.9999
vt 0.3661 0.9999
vt 0.1340 0.8660
vt 0.0001 0.6339
vt 0.0001 0.3661
vt 0.1340 0.1340
vn 0.1777 0.7270 0.6632
vn 0.1159 0.8942 -0.4325
vn 0.6712 0.7191 -0.1798
vn 0.3163 0.8944 -0.3163
vn -0.4886 0.7228 -0.4886
vn 0.4333 0.8938 -0.1161
vn -0.6622 0.7280 0.1774
vn 0.4357 0.8925 0.1168
vn 0.1801 0.7183 -0.6720
vn 0.3213 0.8908 0.3213
vn -0.1772 0.7288 0.6614
vn 0.1184 0.8893 0.4418
vn 0.6688 0.7215 0.1792
vn -0.1189 0.8883 0.4437
vn 0.4922 0.7180 -0.4922
vn -0.3251 0.8880 0.3251
vn -0.6645 0.7257 -0.1781
vn -0.4429 0.8887 0.1187
vn -0.1796 0.7201 -0.6702
vn -0.4403 0.8901 -0.1180
vn -0.4839 0.7291 0.4839
vn -0.3200 0.8917 -0.3200
vn 0.4875 0.7244 0.4875
vn -0.1164 0.8932 -0.4343
vn -0.9415 0.2236 0.2523
vn 0.6902 0.2175 -0.6902
vn -0.2522 0.2241 0.9414
vn 0.6896 0.2214 0.6896
vn -0.9418 0.2222 -0.2523
vn 0.9427 0.2182 -0.2526
vn -0.2525 0.2188 -0.9425
vn -0.6891 0.2243 0.6891
vn 0.2526 0.2177 -0.9428
vn 0.2523 0.2230 0.9416
vn -0.6897 0.2204 -0.6897
vn 0.9423 0.2196 0.2525
vn 0.6600 -0.3590 0.6600
vn -0.9011 -0.3603 -0.2414
vn 0.9033 -0.3543 -0.2420
vn -0.2419 -0.3552 -0.9029
vn -0.6588 -0.3634 0.6588
vn 0.2421 -0.3536 -0.9035
vn 0.2413 -0.3615 0.9006
vn -0.6603 -0.3576 -0.6603
vn 0.9025 -0.3564 0.2418
vn -0.9003 -0.3624 0.2412
vn 0.6615 -0.3533 -0.6615
vn -0.2412 -0.3631 0.9000
vn 0.1807 -0.7161 -0.6742
vn 0.1783 -0.7248 0.6655
vn -0.4903 -0.7206 -0.4903
vn 0.6711 -0.7192 0.1798
vn -0.6645 -0.7258 0.1781
vn 0.4939 -0.7157 -0.4939
vn -0.1778 -0.7265 0.6637
vn 0.4891 -0.7221 0.4891
vn -0.6668 -0.7235 -0.1787
vn 0.6735 -0.7169 -0.1805
vn -0.1802 -0.7179 -0.6725
vn -0.4856 -0.7269 0.4856
vn 0.6592 0.3619 -0.6592
vn -0.2403 0.3719 0.8966
vn 0.6575 0.3678 0.6575
vn -0.8977 0.3690 -0.2405
vn 0.9000 0.3630 -0.2412
vn -0.2411 0.3639 -0.8997
vn -0.6563 0.3722 0.6563
vn 0.2412 0.3623 -0.9003
vn 0.2404 0.3703 0.8973
vn -0.6579 0.3664 -0.6579
vn 0.8992 0.3651 0.2409
vn -0.8969 0.3712 0.2403
vn -0.8495 0.4759 -0.2276
vn 0.8531 0.4689 -0.2286
vn -0.2285 0.4700 -0.8526
vn -0.6205 0.4796 0.6205
vn 0.2287 0.4681 -0.8536
vn 0.2274 0.4773 0.8488
vn -0.6231 0.4728 -0.6231
vn 0.8519 0.4714 0.2283
vn -0.8482 0.4784 0.2273
vn 0.6250 0.4677 -0.6250
vn -0.2272 0.4792 0.8478
vn 0.6224 0.4745 0.6224
vn 0.2584 0.0536 0.9645
vn -0.7061 0.0530 -0.7061
vn 0.9646 0.0528 0.2585
vn -0.9645 0.0538 0.2584
vn 0.7061 0.0522 -0.7061
vn -0.2584 0.0539 0.9645
vn 0.7061 0.0532 0.7061
vn -0.9645 0.0534 -0.2584
vn 0.9646 0.0524 -0.2585
vn -0.2585 0.0525 -0.9646
vn -0.7061 0.0539 0.7061
vn 0.2585 0.0523 -0.9646
vn 0.5069 0.6973 -0.5069
vn -0.1827 0.7084 0.6818
vn 0.5023 0.7039 0.5023
vn -0.6848 0.7053 -0.1835
vn 0.6913 0.6985 -0.1852
vn -0.1850 0.6995 -0.6903
vn -0.4988 0.7088 0.4988
vn 0.1854 0.6977 -0.6920
vn 0.1831 0.7066 0.6835
vn -0.5034 0.7023 -0.5034
vn 0.6890 0.7009 0.1846
vn -0.6825 0.7076 0.1829
vn 0.0000 -1.0000 0.0000
vn -0.9418 0.2222 -0.2524
usemtl None
s off
f 9/1/1 21/2/1 7/3/1
f 2/4/2 8/5/2 3/6/2
f 5/7/3 18/8/3 4/9/3
f 3/6/4 8/5/4 4/9/4
f 13/10/5 27/11/5 26/12/5
f 4/9/6 8/5/6 5/7/6
f 11/13/7 25/14/7 24/15/7
f 5/7/8 8/5/8 6/16/8
f 2/4/9 17/17/9 16/18/9
f 6/16/10 8/5/10 7/3/10
f 10/19/11 22/20/11 9/1/11
f 7/3/12 8/5/12 9/1/12
f 6/16/13 19/21/13 5/7/13
f 9/1/14 8/5/14 10/19/14
f 4/9/15 17/17/15 3/6/15
f 10/19/16 8/5/16 11/13/16
f 12/22/17 26/12/17 25/14/17
f 11/13/18 8/5/18 12/22/18
f 14/23/19 16/18/19 27/11/19
f 12/22/20 8/5/20 13/10/20
f 10/19/21 24/15/21 23/24/21
f 13/10/22 8/5/22 14/23/22
f 7/3/23 20/25/23 6/16/23
f 14/23/24 8/5/24 2/4/24
f 24/15/25 38/26/25 37/27/25
f 18/8/26 30/28/26 17/17/26
f 23/24/27 35/29/27 22/20/27
f 21/2/28 33/30/28 20/25/28
f 25/14/29 39/31/29 38/26/29
f 19/21/30 31/32/30 18/8/30
f 27/11/31 29/33/31 40/34/31
f 23/24/32 37/27/32 36/35/32
f 16/18/33 30/28/33 29/33/33
f 22/20/34 34/36/34 21/2/34
f 26/12/35 40/34/35 39/31/35
f 20/25/36 32/37/36 19/21/36
f 33/30/37 47/38/37 46/39/37
f 39/31/38 51/40/38 38/26/38
f 31/32/39 45/41/39 44/42/39
f 29/33/40 53/43/40 40/34/40
f 37/27/41 49/44/41 36/35/41
f 30/28/42 42/45/42 29/33/42
f 34/36/43 48/46/43 47/38/43
f 40/34/44 52/47/44 39/31/44
f 32/37/45 46/39/45 45/41/45
f 38/26/46 50/48/46 37/27/46
f 30/28/47 44/42/47 43/49/47
f 35/29/48 49/44/48 48/46/48
f 43/49/49 55/50/49 42/45/49
f 47/38/50 61/51/50 60/52/50
f 53/43/51 65/53/51 52/47/51
f 45/41/52 59/54/52 58/55/52
f 51/40/53 63/56/53 50/48/53
f 43/49/54 57/57/54 56/58/54
f 48/46/55 62/59/55 61/51/55
f 46/39/56 60/52/56 59/54/56
f 52/47/57 64/60/57 51/40/57
f 44/42/58 58/55/58 57/57/58
f 42/45/59 66/61/59 53/43/59
f 50/48/60 62/59/60 49/44/60
f 57/57/61 69/62/61 56/58/61
f 62/59/62 74/63/62 61/51/62
f 60/52/63 72/64/63 59/54/63
f 64/60/64 78/65/64 77/66/64
f 58/55/65 70/67/65 57/57/65
f 66/61/66 68/68/66 79/69/66
f 62/59/67 76/70/67 75/71/67
f 55/50/68 69/62/68 68/68/68
f 61/51/69 73/72/69 60/52/69
f 65/53/70 79/69/70 78/65/70
f 59/54/71 71/73/71 58/55/71
f 63/56/72 77/66/72 76/70/72
f 77/66/73 91/74/73 90/75/73
f 71/73/74 83/76/74 70/67/74
f 79/69/75 81/77/75 92/78/75
f 75/71/76 89/79/76 88/80/76
f 68/68/77 82/81/77 81/77/77
f 74/63/78 86/82/78 73/72/78
f 78/65/79 92/78/79 91/74/79
f 72/64/80 84/83/80 71/73/80
f 76/70/81 90/75/81 89/79/81
f 70/67/82 82/81/82 69/62/82
f 75/71/83 87/84/83 74/63/83
f 73/72/84 85/85/84 72/64/84
f 87/84/85 99/86/85 86/82/85
f 91/74/86 105/87/86 104/88/86
f 85/85/87 97/89/87 84/83/87
f 89/79/88 103/90/88 102/91/88
f 83/76/89 95/92/89 82/81/89
f 88/80/90 100/93/90 87/84/90
f 86/82/91 98/94/91 85/85/91
f 90/75/92 104/88/92 103/90/92
f 84/83/93 96/95/93 83/76/93
f 92/78/94 94/96/94 105/87/94
f 88/80/95 102/91/95 101/97/95
f 81/77/96 95/92/96 94/96/96
f 96/95/97 108/98/97 95/92/97
f 101/97/98 113/99/98 100/93/98
f 99/86/99 111/100/99 98/94/99
f 103/90/100 117/101/100 116/102/100
f 97/89/101 109/103/101 96/95/101
f 105/87/102 107/104/102 118/105/102
f 101/97/103 115/106/103 114/107/103
f 94/96/104 108/98/104 107/104/104
f 100/93/105 112/108/105 99/86/105
f 104/88/106 118/105/106 117/101/106
f 98/94/107 110/109/107 97/89/107
f 102/91/108 116/102/108 115/106/108
f 1/110/109 107/111/109 108/112/109
f 1/110/109 108/112/109 109/113/109
f 1/110/109 109/113/109 110/114/109
f 1/110/109 110/114/109 111/115/109
f 1/110/109 111/115/109 112/116/109
f 1/110/109 112/116/109 113/117/109
f 1/110/109 113/117/109 114/118/109
f 1/110/109 114/118/109 115/119/109
f 1/110/109 115/119/109 116/120/109
f 1/110/109 116/120/109 117/121/109
f 1/110/109 117/121/109 118/122/109
f 1/110/109 118/122/109 107/111/109
f 9/1/1 22/20/1 21/2/1
f 5/7/3 19/21/3 18/8/3
f 13/10/5 14/23/5 27/11/5
f 11/13/7 12/22/7 25/14/7
f 2/4/9 3/6/9 17/17/9
f 10/19/11 23/24/11 22/20/11
f 6/16/13 20/25/13 19/21/13
f 4/9/15 18/8/15 17/17/15
f 12/22/17 13/10/17 26/12/17
f 14/23/19 2/4/19 16/18/19
f 10/19/21 11/13/21 24/15/21
f 7/3/23 21/2/23 20/25/23
f 24/15/25 25/14/25 38/26/25
f 18/8/26 31/32/26 30/28/26
f 23/24/27 36/35/27 35/29/27
f 21/2/28 34/36/28 33/30/28
f 25/14/110 26/12/110 39/31/110
f 19/21/30 32/37/30 31/32/30
f 27/11/31 16/18/31 29/33/31
f 23/24/32 24/15/32 37/27/32
f 16/18/33 17/17/33 30/28/33
f 22/20/34 35/29/34 34/36/34
f 26/12/35 27/11/35 40/34/35
f 20/25/36 33/30/36 32/37/36
f 33/30/37 34/36/37 47/38/37
f 39/31/38 52/47/38 51/40/38
f 31/32/39 32/37/39 45/41/39
f 29/33/40 42/45/40 53/43/40
f 37/27/41 50/48/41 49/44/41
f 30/28/42 43/49/42 42/45/42
f 34/36/43 35/29/43 48/46/43
f 40/34/44 53/43/44 52/47/44
f 32/37/45 33/30/45 46/39/45
f 38/26/46 51/40/46 50/48/46
f 30/28/47 31/32/47 44/42/47
f 35/29/48 36/35/48 49/44/48
f 43/49/49 56/58/49 55/50/49
f 47/38/50 48/46/50 61/51/50
f 53/43/51 66/61/51 65/53/51
f 45/41/52 46/39/52 59/54/52
f 51/40/53 64/60/53 63/56/53
f 43/49/54 44/42/54 57/57/54
f 48/46/55 49/44/55 62/59/55
f 46/39/56 47/38/56 60/52/56
f 52/47/57 65/53/57 64/60/57
f 44/42/58 45/41/58 58/55/58
f 42/45/59 55/50/59 66/61/59
f 50/48/60 63/56/60 62/59/60
f 57/57/61 70/67/61 69/62/61
f 62/59/62 75/71/62 74/63/62
f 60/52/63 73/72/63 72/64/63
f 64/60/64 65/53/64 78/65/64
f 58/55/65 71/73/65 70/67/65
f 66/61/66 55/50/66 68/68/66
f 62/59/67 63/56/67 76/70/67
f 55/50/68 56/58/68 69/62/68
f 61/51/69 74/63/69 73/72/69
f 65/53/70 66/61/70 79/69/70
f 59/54/71 72/64/71 71/73/71
f 63/56/72 64/60/72 77/66/72
f 77/66/73 78/65/73 91/74/73
f 71/73/74 84/83/74 83/76/74
f 79/69/75 68/68/75 81/77/75
f 75/71/76 76/70/76 89/79/76
f 68/68/77 69/62/77 82/81/77
f 74/63/78 87/84/78 86/82/78
f 78/65/79 79/69/79 92/78/79
f 72/64/80 85/85/80 84/83/80
f 76/70/81 77/66/81 90/75/81
f 70/67/82 83/76/82 82/81/82
f 75/71/83 88/80/83 87/84/83
f 73/72/84 86/82/84 85/85/84
f 87/84/85 100/93/85 99/86/85
f 91/74/86 92/78/86 105/87/86
f 85/85/87 98/94/87 97/89/87
f 89/79/88 90/75/88 103/90/88
f 83/76/89 96/95/89 95/92/89
f 88/80/90 101/97/90 100/93/90
f 86/82/91 99/86/91 98/94/91
f 90/75/92 91/74/92 104/88/92
f 84/83/93 97/89/93 96/95/93
f 92/78/94 81/77/94 94/96/94
f 88/80/95 89/79/95 102/91/95
f 81/77/96 82/81/96 95/92/96
f 96/95/97 109/103/97 108/98/97
f 101/97/98 114/107/98 113/99/98
f 99/86/99 112/108/99 111/100/99
f 103/90/100 104/88/100 117/101/100
f 97/89/101 110/109/101 109/103/101
f 105/87/102 94/96/102 107/104/102
f 101/97/103 102/91/103 115/106/103
f 94/96/104 95/92/104 108/98/104
f 100/93/105 113/99/105 112/108/105
f 104/88/106 105/87/106 118/105/106
f 98/94/107 111/100/107 110/109/107
f 102/91/108 103/90/108 116/102/108
l 15 28
l 28 41
l 41 54
l 54 67
l 67 80
l 80 93
l 93 106
l 106 119
